<?xml version="1.0" encoding="UTF-8"?>
<svg id="Layer_1" xmlns="http://www.w3.org/2000/svg" width="1200" height="896" version="1.1" viewBox="0 0 1200 896">
  <!-- Generator: Adobe Illustrator 30.4.0, SVG Export Plug-In . SVG Version: 2.1.3 Build 159)  -->
  <defs>
    <style>
      .st0 {
        fill: #843d0c;
      }
    </style>
  </defs>
  <path class="st0" d="M647.93,0c-32.47,68.76-37.74,41.17,37.35,26.28,51.86-26.11.54,15.24-19.58,27.43,26.28.31,66.35,6.13,92.34,1.5-17.79,11.6-36.64,18.04-58.18,21.29,31.59,18.73,116.76,37.42,31.8,33.81,10.78,10.82,32.94,35.3,43.5,46.62,0,0-29-9.13-29-9.13,14.86,18.61,29,89.51,0,46.07-1.04,19.32-2.95,38.19-11.97,55.91l-3.04-18.71-12.35,26.7c-5.14,8.94-10.91,27.01-12.5,6.84-6.57,10.87-13.1,19.6-21.84,27.8l-2.05-8.72c-31.23,43.28,121.24-48.42,122.19-100.96,8.44-27.89,11.06-54.28,46.49-54.55,29.73-8.2,91.22-28.99,120.46-39.74,34.46-10.39,175.15-91.6,106.82-41.88-45.71,40.16-81.03,127.37-27.27,174.54-20.98-8.63-44.05-7.76-63.25,4.9-95.57,68.07,4.75,129.98-73.96,85.95-45.91-9.8-92.11,20.5-106.02,65.11-22.3-53.62-146.48-4.78-187.03,11.13,25.74,9.72,68.68,12.88,95.41,19.43,103.9,31.84,52.72,148.03-36.04,159.76-23.27,10.41-150.44,22.81-59.88,37.08,130.33,9.94,176.72,114.99,27.91,151.9-64.42,17.63-83.66,20.13-3.22,40.6,114.11,52.49-119.7,78.87-35.08,99.01-10.53-.53-25.75,1.61-31.6-10.35-8.4-28.42,35.48-30.03,53.74-44.51-20.13-18.84-53.33-14.07-78.48-16.89-44.25-3.16-83.08-57.61-32.83-84.36,32.17-19.96,88.61-25.8,121.91-43.59-50.6-30.92-114.62-4.85-166.67-32.37-134.46-83.56,22.9-152.26,109.2-166.52,111.98-30.07-86.08.23-119.68-60.93-21.97-22.25-30.8-52.66-23.51-83.73-18.98-6.2-48.97-2.97-46.85,23.1-19.76-57.42-99.95-93.03-143.15-40.15,28.56-59.49-35.5-143.56-100.55-114.35,52.02-48.72,18.44-133.37-27.33-174.47C58.04.26,166.24,60.66,195.45,73.51c55.62,24.27,113.65,44.06,172.51,58.48,32.87,9.21,23.41,65.83,50.47,88.47,32.9,43.38,82.8,70,127.32,27.39,22.29-6.28,95.36-67.04,39.52-65.59,0,0,4.82,5.73,4.82,5.73-27.94-5.58-53.89,11.58-65.88,36.19,1.9,17.1-9.62,1.25-4.7,17.04-16.39,1.89-61.39-10.93-32.75-28.84,5.57-6.79,8.42-17.03,12.32-24.72,7.52-9.35,2.78-20.97-3.98-29.1-11.67,5.79-26.43,11.36-39.44,13.1-7.55,2.47-10.83,9.58-20.79,2.29-9.24-8.26-8.6-25.59-1.28-34.94,12.27-9.89,37.63-6.22,44.81-24.77,7.34-11.07,17.07-36.48,29.55-48.68-1.47,4.98-8.81,32.81,2.83,15.26,10.28-14.78,27.36-40.37,35.07-56.48,1.65,12.92-2.94,23.12-7.07,35.14l24.13-22.52c30.69-43.44,28.03-27.34,10.7,13.15,27.89-11.26,51.18-32.48,74.35-50.13Z"/>
</svg>